<svg width="212" height="28" viewBox="0 0 212 28" fill="none" xmlns="http://www.w3.org/2000/svg">
<g clip-path="url(#clip0_567_4291)">
<rect width="211.5" height="28" fill="white"/>
<path d="M115.25 0H0V28H115.25V0Z" fill="#191724"/>
<path d="M211.5 0H115.25V28H211.5V0Z" fill="#26233A"/>
<path d="M41.1881 12.5H40.3074C40.2553 12.2467 40.1642 12.0241 40.034 11.8324C39.9061 11.6406 39.7499 11.4796 39.5652 11.3494C39.3829 11.2169 39.1805 11.1174 38.958 11.0511C38.7354 10.9848 38.5034 10.9517 38.2619 10.9517C37.8216 10.9517 37.4227 11.063 37.0652 11.2855C36.7101 11.508 36.4272 11.8359 36.2165 12.2692C36.0082 12.7024 35.904 13.2339 35.904 13.8636C35.904 14.4934 36.0082 15.0249 36.2165 15.4581C36.4272 15.8913 36.7101 16.2192 37.0652 16.4418C37.4227 16.6643 37.8216 16.7756 38.2619 16.7756C38.5034 16.7756 38.7354 16.7424 38.958 16.6761C39.1805 16.6098 39.3829 16.5116 39.5652 16.3814C39.7499 16.2488 39.9061 16.0866 40.034 15.8949C40.1642 15.7008 40.2553 15.4782 40.3074 15.2273H41.1881C41.1218 15.599 41.0011 15.9316 40.8259 16.2251C40.6507 16.5187 40.4329 16.7685 40.1725 16.9744C39.912 17.178 39.6197 17.3331 39.2953 17.4396C38.9734 17.5462 38.6289 17.5994 38.2619 17.5994C37.6417 17.5994 37.0901 17.4479 36.6071 17.1449C36.1242 16.8419 35.7442 16.411 35.4672 15.8523C35.1902 15.2936 35.0517 14.6307 35.0517 13.8636C35.0517 13.0966 35.1902 12.4337 35.4672 11.875C35.7442 11.3163 36.1242 10.8854 36.6071 10.5824C37.0901 10.2794 37.6417 10.1278 38.2619 10.1278C38.6289 10.1278 38.9734 10.1811 39.2953 10.2876C39.6197 10.3942 39.912 10.5504 40.1725 10.7564C40.4329 10.96 40.6507 11.2086 40.8259 11.5021C41.0011 11.7933 41.1218 12.1259 41.1881 12.5ZM48.7476 13.8636C48.7476 14.6307 48.6091 15.2936 48.3321 15.8523C48.0551 16.411 47.6751 16.8419 47.1922 17.1449C46.7092 17.4479 46.1576 17.5994 45.5373 17.5994C44.9171 17.5994 44.3655 17.4479 43.8825 17.1449C43.3996 16.8419 43.0196 16.411 42.7426 15.8523C42.4656 15.2936 42.3271 14.6307 42.3271 13.8636C42.3271 13.0966 42.4656 12.4337 42.7426 11.875C43.0196 11.3163 43.3996 10.8854 43.8825 10.5824C44.3655 10.2794 44.9171 10.1278 45.5373 10.1278C46.1576 10.1278 46.7092 10.2794 47.1922 10.5824C47.6751 10.8854 48.0551 11.3163 48.3321 11.875C48.6091 12.4337 48.7476 13.0966 48.7476 13.8636ZM47.8953 13.8636C47.8953 13.2339 47.7899 12.7024 47.5792 12.2692C47.3709 11.8359 47.088 11.508 46.7305 11.2855C46.3754 11.063 45.9777 10.9517 45.5373 10.9517C45.097 10.9517 44.6981 11.063 44.3406 11.2855C43.9855 11.508 43.7026 11.8359 43.4919 12.2692C43.2836 12.7024 43.1794 13.2339 43.1794 13.8636C43.1794 14.4934 43.2836 15.0249 43.4919 15.4581C43.7026 15.8913 43.9855 16.2192 44.3406 16.4418C44.6981 16.6643 45.097 16.7756 45.5373 16.7756C45.9777 16.7756 46.3754 16.6643 46.7305 16.4418C47.088 16.2192 47.3709 15.8913 47.5792 15.4581C47.7899 15.0249 47.8953 14.4934 47.8953 13.8636ZM50.2284 10.2273H51.2795L53.7511 16.2642H53.8363L56.3079 10.2273H57.3591V17.5H56.5352V11.9744H56.4642L54.1915 17.5H53.396L51.1233 11.9744H51.0523V17.5H50.2284V10.2273ZM59.1249 10.2273H60.176L62.6476 16.2642H62.7328L65.2044 10.2273H66.2556V17.5H65.4317V11.9744H65.3607L63.0879 17.5H62.2925L60.0198 11.9744H59.9487V17.5H59.1249V10.2273ZM72.7941 10.2273H73.6748V15.0426C73.6748 15.5398 73.5576 15.9837 73.3232 16.3743C73.0912 16.7625 72.7633 17.0691 72.3395 17.294C71.9158 17.5166 71.4186 17.6278 70.8481 17.6278C70.2775 17.6278 69.7804 17.5166 69.3566 17.294C68.9328 17.0691 68.6037 16.7625 68.3694 16.3743C68.1374 15.9837 68.0214 15.5398 68.0214 15.0426V10.2273H68.902V14.9716C68.902 15.3267 68.9802 15.6428 69.1364 15.9197C69.2927 16.1944 69.5152 16.411 69.804 16.5696C70.0952 16.7259 70.4432 16.804 70.8481 16.804C71.2529 16.804 71.6009 16.7259 71.8921 16.5696C72.1833 16.411 72.4058 16.1944 72.5597 15.9197C72.716 15.6428 72.7941 15.3267 72.7941 14.9716V10.2273ZM81.2005 10.2273V17.5H80.3482L76.3852 11.7898H76.3142V17.5H75.4335V10.2273H76.2857L80.263 15.9517H80.334V10.2273H81.2005ZM83.8434 10.2273V17.5H82.9628V10.2273H83.8434ZM85.2115 11.0085V10.2273H90.6661V11.0085H88.3791V17.5H87.4985V11.0085H85.2115ZM91.4003 10.2273H92.4088L94.4258 13.6222H94.5111L96.5281 10.2273H97.5366L94.9088 14.5028V17.5H94.0281V14.5028L91.4003 10.2273Z" fill="white"/>
<path d="M136.574 11.8189C136.545 11.5324 136.423 11.3099 136.208 11.1513C135.992 10.9927 135.7 10.9134 135.331 10.9134C135.08 10.9134 134.868 10.9489 134.695 11.0199C134.522 11.0885 134.39 11.1844 134.297 11.3075C134.207 11.4306 134.162 11.5703 134.162 11.7266C134.158 11.8568 134.185 11.9704 134.244 12.0675C134.306 12.1645 134.39 12.2486 134.496 12.3196C134.603 12.3883 134.726 12.4486 134.865 12.5007C135.005 12.5504 135.154 12.593 135.313 12.6286L135.966 12.7848C136.283 12.8558 136.575 12.9505 136.84 13.0689C137.105 13.1873 137.335 13.3329 137.529 13.5057C137.723 13.6785 137.873 13.8821 137.98 14.1165C138.089 14.3509 138.144 14.6196 138.147 14.9226C138.144 15.3677 138.031 15.7536 137.806 16.0803C137.583 16.4046 137.261 16.6567 136.84 16.8366C136.421 17.0142 135.915 17.103 135.324 17.103C134.736 17.103 134.225 17.013 133.789 16.8331C133.356 16.6532 133.018 16.3868 132.774 16.0341C132.532 15.679 132.406 15.2398 132.394 14.7166H133.882C133.898 14.9605 133.968 15.1641 134.091 15.3274C134.217 15.4884 134.384 15.6103 134.592 15.6932C134.803 15.7737 135.041 15.8139 135.306 15.8139C135.566 15.8139 135.792 15.776 135.984 15.7003C136.178 15.6245 136.328 15.5192 136.435 15.3842C136.542 15.2493 136.595 15.0942 136.595 14.919C136.595 14.7557 136.546 14.6184 136.449 14.5071C136.355 14.3958 136.215 14.3011 136.03 14.223C135.848 14.1449 135.624 14.0739 135.359 14.0099L134.567 13.8111C133.954 13.6619 133.47 13.4287 133.115 13.1115C132.76 12.7943 132.583 12.367 132.586 11.8295C132.583 11.3892 132.7 11.0045 132.937 10.6754C133.176 10.3464 133.504 10.0895 133.921 9.90483C134.337 9.72017 134.811 9.62784 135.341 9.62784C135.881 9.62784 136.352 9.72017 136.755 9.90483C137.159 10.0895 137.474 10.3464 137.699 10.6754C137.924 11.0045 138.04 11.3857 138.047 11.8189H136.574ZM140.708 17.103C140.36 17.103 140.05 17.0426 139.778 16.9219C139.505 16.7988 139.29 16.6177 139.131 16.3786C138.975 16.1371 138.897 15.8364 138.897 15.4766C138.897 15.1735 138.952 14.919 139.064 14.7131C139.175 14.5071 139.327 14.3414 139.518 14.2159C139.71 14.0904 139.928 13.9957 140.172 13.9318C140.418 13.8679 140.676 13.8229 140.946 13.7969C141.263 13.7637 141.519 13.733 141.713 13.7045C141.907 13.6738 142.048 13.6288 142.135 13.5696C142.223 13.5104 142.267 13.4228 142.267 13.3068V13.2855C142.267 13.0606 142.196 12.8866 142.054 12.7635C141.914 12.6404 141.715 12.5788 141.457 12.5788C141.185 12.5788 140.968 12.6392 140.807 12.7599C140.646 12.8783 140.54 13.0275 140.488 13.2074L139.089 13.0938C139.16 12.7623 139.299 12.4759 139.508 12.2344C139.716 11.9905 139.985 11.8035 140.314 11.6733C140.645 11.5407 141.029 11.4744 141.464 11.4744C141.767 11.4744 142.057 11.5099 142.334 11.581C142.614 11.652 142.861 11.7621 143.077 11.9112C143.294 12.0604 143.466 12.2521 143.591 12.4865C143.717 12.7185 143.78 12.9967 143.78 13.321V17H142.345V16.2436H142.302C142.215 16.4141 142.098 16.5644 141.951 16.6946C141.804 16.8224 141.628 16.9231 141.422 16.9964C141.216 17.0675 140.978 17.103 140.708 17.103ZM141.141 16.0589C141.364 16.0589 141.56 16.0152 141.731 15.9276C141.901 15.8376 142.035 15.7169 142.132 15.5653C142.229 15.4138 142.278 15.2422 142.278 15.0504V14.4716C142.23 14.5024 142.165 14.5308 142.082 14.5568C142.002 14.5805 141.911 14.603 141.809 14.6243C141.707 14.6432 141.605 14.661 141.503 14.6776C141.402 14.6918 141.309 14.7048 141.226 14.7166C141.049 14.7427 140.894 14.7841 140.761 14.8409C140.629 14.8977 140.526 14.9747 140.452 15.0717C140.379 15.1664 140.342 15.2848 140.342 15.4268C140.342 15.6328 140.417 15.7902 140.566 15.8991C140.717 16.0057 140.909 16.0589 141.141 16.0589ZM146.324 15.4304L146.328 13.6158H146.548L148.295 11.5455H150.031L147.684 14.2869H147.325L146.324 15.4304ZM144.953 17V9.72727H146.466V17H144.953ZM148.362 17L146.757 14.6243L147.766 13.5554L150.134 17H148.362ZM152.329 17.103C151.981 17.103 151.671 17.0426 151.399 16.9219C151.126 16.7988 150.911 16.6177 150.752 16.3786C150.596 16.1371 150.518 15.8364 150.518 15.4766C150.518 15.1735 150.574 14.919 150.685 14.7131C150.796 14.5071 150.948 14.3414 151.139 14.2159C151.331 14.0904 151.549 13.9957 151.793 13.9318C152.039 13.8679 152.297 13.8229 152.567 13.7969C152.884 13.7637 153.14 13.733 153.334 13.7045C153.528 13.6738 153.669 13.6288 153.757 13.5696C153.844 13.5104 153.888 13.4228 153.888 13.3068V13.2855C153.888 13.0606 153.817 12.8866 153.675 12.7635C153.535 12.6404 153.336 12.5788 153.078 12.5788C152.806 12.5788 152.589 12.6392 152.428 12.7599C152.267 12.8783 152.161 13.0275 152.109 13.2074L150.71 13.0938C150.781 12.7623 150.92 12.4759 151.129 12.2344C151.337 11.9905 151.606 11.8035 151.935 11.6733C152.266 11.5407 152.65 11.4744 153.085 11.4744C153.388 11.4744 153.678 11.5099 153.955 11.581C154.235 11.652 154.482 11.7621 154.698 11.9112C154.915 12.0604 155.087 12.2521 155.213 12.4865C155.338 12.7185 155.401 12.9967 155.401 13.321V17H153.966V16.2436H153.923C153.836 16.4141 153.719 16.5644 153.572 16.6946C153.425 16.8224 153.249 16.9231 153.043 16.9964C152.837 17.0675 152.599 17.103 152.329 17.103ZM152.762 16.0589C152.985 16.0589 153.181 16.0152 153.352 15.9276C153.522 15.8376 153.656 15.7169 153.753 15.5653C153.85 15.4138 153.899 15.2422 153.899 15.0504V14.4716C153.851 14.5024 153.786 14.5308 153.703 14.5568C153.623 14.5805 153.532 14.603 153.43 14.6243C153.328 14.6432 153.226 14.661 153.124 14.6776C153.023 14.6918 152.93 14.7048 152.847 14.7166C152.67 14.7427 152.515 14.7841 152.382 14.8409C152.25 14.8977 152.147 14.9747 152.073 15.0717C152 15.1664 151.963 15.2848 151.963 15.4268C151.963 15.6328 152.038 15.7902 152.187 15.8991C152.338 16.0057 152.53 16.0589 152.762 16.0589ZM156.574 17V11.5455H158.087V17H156.574ZM157.334 10.8423C157.109 10.8423 156.916 10.7678 156.756 10.6186C156.597 10.4671 156.518 10.286 156.518 10.0753C156.518 9.86695 156.597 9.68821 156.756 9.53906C156.916 9.38755 157.109 9.31179 157.334 9.31179C157.559 9.31179 157.751 9.38755 157.91 9.53906C158.071 9.68821 158.151 9.86695 158.151 10.0753C158.151 10.286 158.071 10.4671 157.91 10.6186C157.751 10.7678 157.559 10.8423 157.334 10.8423ZM161.365 10.995V9.72727H167.338V10.995H165.111V17H163.591V10.995H161.365ZM169.806 13.8466V17H168.293V9.72727H169.763V12.5078H169.827C169.95 12.1858 170.149 11.9337 170.424 11.7514C170.698 11.5668 171.043 11.4744 171.457 11.4744C171.836 11.4744 172.166 11.5573 172.448 11.723C172.732 11.8864 172.952 12.1219 173.108 12.4297C173.267 12.7351 173.345 13.1009 173.343 13.527V17H171.83V13.7969C171.832 13.4607 171.747 13.1991 171.574 13.0121C171.404 12.825 171.165 12.7315 170.857 12.7315C170.651 12.7315 170.469 12.7753 170.31 12.8629C170.154 12.9505 170.031 13.0784 169.941 13.2464C169.853 13.4122 169.808 13.6122 169.806 13.8466ZM177.019 17.1065C176.458 17.1065 175.975 16.9929 175.57 16.7656C175.168 16.536 174.858 16.2116 174.64 15.7926C174.422 15.3712 174.313 14.8729 174.313 14.2976C174.313 13.7365 174.422 13.2441 174.64 12.8203C174.858 12.3965 175.164 12.0663 175.56 11.8295C175.957 11.5928 176.424 11.4744 176.959 11.4744C177.319 11.4744 177.654 11.5324 177.964 11.6484C178.276 11.7621 178.549 11.9337 178.781 12.1634C179.015 12.393 179.197 12.6818 179.327 13.0298C179.458 13.3755 179.523 13.7803 179.523 14.2443V14.6598H174.917V13.7223H178.099C178.099 13.5045 178.051 13.3116 177.957 13.1435C177.862 12.9754 177.731 12.844 177.562 12.7493C177.397 12.6522 177.204 12.6037 176.984 12.6037C176.754 12.6037 176.55 12.657 176.373 12.7635C176.198 12.8677 176.06 13.0085 175.961 13.1861C175.862 13.3613 175.811 13.5566 175.808 13.772V14.6634C175.808 14.9332 175.858 15.1664 175.957 15.3629C176.059 15.5594 176.202 15.7109 176.387 15.8175C176.572 15.924 176.791 15.9773 177.044 15.9773C177.212 15.9773 177.366 15.9536 177.506 15.9062C177.645 15.8589 177.765 15.7879 177.864 15.6932C177.964 15.5985 178.04 15.4825 178.092 15.3452L179.491 15.4375C179.42 15.7737 179.274 16.0672 179.054 16.3182C178.836 16.5668 178.554 16.7609 178.209 16.9006C177.866 17.0379 177.469 17.1065 177.019 17.1065ZM180.51 17V11.5455H181.952V12.5078H182.016C182.129 12.1882 182.319 11.9361 182.584 11.7514C182.849 11.5668 183.166 11.4744 183.536 11.4744C183.91 11.4744 184.228 11.5679 184.491 11.755C184.754 11.9396 184.929 12.1906 185.016 12.5078H185.073C185.184 12.1953 185.386 11.9455 185.677 11.7585C185.97 11.5691 186.317 11.4744 186.717 11.4744C187.226 11.4744 187.639 11.6366 187.957 11.9609C188.276 12.2829 188.436 12.7398 188.436 13.3317V17H186.927V13.63C186.927 13.3269 186.846 13.0997 186.685 12.9482C186.524 12.7966 186.323 12.7209 186.082 12.7209C185.807 12.7209 185.593 12.8085 185.439 12.9837C185.285 13.1565 185.208 13.3849 185.208 13.669V17H183.741V13.598C183.741 13.3305 183.665 13.1174 183.511 12.9588C183.359 12.8002 183.159 12.7209 182.911 12.7209C182.742 12.7209 182.591 12.7635 182.456 12.8487C182.323 12.9316 182.218 13.0488 182.14 13.2003C182.062 13.3494 182.023 13.5246 182.023 13.7259V17H180.51ZM192.117 17.1065C191.556 17.1065 191.073 16.9929 190.668 16.7656C190.266 16.536 189.955 16.2116 189.738 15.7926C189.52 15.3712 189.411 14.8729 189.411 14.2976C189.411 13.7365 189.52 13.2441 189.738 12.8203C189.955 12.3965 190.262 12.0663 190.657 11.8295C191.055 11.5928 191.521 11.4744 192.056 11.4744C192.416 11.4744 192.751 11.5324 193.061 11.6484C193.374 11.7621 193.646 11.9337 193.878 12.1634C194.113 12.393 194.295 12.6818 194.425 13.0298C194.555 13.3755 194.62 13.7803 194.62 14.2443V14.6598H190.015V13.7223H193.196C193.196 13.5045 193.149 13.3116 193.054 13.1435C192.96 12.9754 192.828 12.844 192.66 12.7493C192.494 12.6522 192.301 12.6037 192.081 12.6037C191.852 12.6037 191.648 12.657 191.471 12.7635C191.295 12.8677 191.158 13.0085 191.059 13.1861C190.959 13.3613 190.908 13.5566 190.906 13.772V14.6634C190.906 14.9332 190.956 15.1664 191.055 15.3629C191.157 15.5594 191.3 15.7109 191.485 15.8175C191.669 15.924 191.888 15.9773 192.142 15.9773C192.31 15.9773 192.464 15.9536 192.603 15.9062C192.743 15.8589 192.863 15.7879 192.962 15.6932C193.061 15.5985 193.137 15.4825 193.189 15.3452L194.588 15.4375C194.517 15.7737 194.372 16.0672 194.152 16.3182C193.934 16.5668 193.652 16.7609 193.306 16.9006C192.963 17.0379 192.567 17.1065 192.117 17.1065Z" fill="white"/>
<g clip-path="url(#clip1_567_4291)">
<rect x="10" y="7" width="14" height="14" rx="7" fill="#302C47"/>
<path d="M16.4669 7.01392C15.2394 7.18165 14.6773 7.33648 13.8891 7.73C13.2237 8.05901 12.7779 8.37512 12.2094 8.91056C10.7429 10.304 10.0193 11.9684 10.0128 13.9747C10.0128 15.452 10.3811 16.7035 11.1822 17.9357C11.4858 18.4002 12.6164 19.5291 13.0816 19.8323C14.3026 20.6258 15.5624 21 17.016 21C18.8961 21 20.4918 20.3678 21.8227 19.1034C23.3022 17.697 24.0128 16.0391 24.0128 14.007C24.0128 11.9749 23.3022 10.3169 21.8227 8.91056C20.8472 7.9816 19.6843 7.38164 18.4051 7.1365C17.9141 7.03973 16.7835 6.96877 16.4669 7.01392ZM17.5006 8.18158C17.604 8.73638 18.1531 9.4331 18.7604 9.78792C19.6972 10.3363 19.9556 10.504 20.2205 10.7556C20.3885 10.9104 20.5306 11.033 20.5306 11.0201C20.537 11.0136 20.6598 10.8588 20.8148 10.6717C20.9764 10.4717 21.0733 10.2976 21.0474 10.2395C20.9828 10.0718 20.1106 9.45246 19.3095 9.00733C18.9478 8.80734 18.502 8.37512 18.502 8.23319C18.502 8.11062 18.5407 8.11062 18.9607 8.25899C19.4775 8.43318 20.1623 8.79444 20.6017 9.117C21.0087 9.4202 21.616 10.0008 21.7839 10.2524C21.8679 10.3879 21.8679 10.4072 21.6935 10.5362C21.112 10.9814 20.7309 11.6007 20.6275 12.291C20.4918 13.1296 20.6792 13.6651 21.6353 15.2649C22.4106 16.5616 22.4817 16.968 21.9777 17.2648C21.4157 17.5938 20.4854 17.4712 19.2126 16.8906L18.7346 16.6713L19.2126 16.4907C20.0137 16.1939 21.0862 15.5746 21.0862 15.4133C21.0862 15.3553 20.7438 14.7553 20.6598 14.6585C20.6469 14.6456 20.4918 14.7424 20.3174 14.865C19.8458 15.2069 18.6893 15.7488 18.4374 15.7488C18.4051 15.7488 18.4567 15.5875 18.5472 15.3875C18.7281 14.9875 18.7281 14.6069 18.5343 14.394C18.4374 14.2844 18.4374 14.2392 18.6247 13.7038C18.8896 12.9103 18.9736 12.42 18.9413 11.8007C18.909 11.1943 18.7669 10.8136 18.4438 10.4395C17.9205 9.84598 16.9127 9.66534 16.1633 10.0266C15.0262 10.5814 14.7678 11.9297 15.4397 13.8005C15.6012 14.2457 15.6012 14.2779 15.4978 14.394C15.304 14.6069 15.304 14.9811 15.4849 15.3875C15.5753 15.5875 15.627 15.7488 15.5947 15.7488C15.3428 15.7488 14.1863 15.2069 13.7147 14.865C13.5403 14.7424 13.3852 14.6456 13.3723 14.6585C13.2883 14.7553 12.9459 15.3553 12.9459 15.4133C12.9459 15.5746 14.0184 16.1939 14.8195 16.4907L15.2975 16.6713L14.8453 16.8777C13.5532 17.4648 12.6164 17.5938 12.0543 17.2648C11.5569 16.968 11.6215 16.5552 12.3709 15.3101C13.34 13.7102 13.5338 13.1296 13.4046 12.291C13.3012 11.6007 12.9201 10.9814 12.3386 10.5362C12.1642 10.4072 12.1642 10.3879 12.2482 10.2524C12.4161 10.0008 13.0234 9.4202 13.4304 9.117C13.8698 8.79444 14.5546 8.43318 15.0714 8.25899C15.4914 8.11062 15.5301 8.11062 15.5301 8.23319C15.5301 8.37512 15.0843 8.80734 14.7226 9.00733C13.9214 9.45246 13.0493 10.0718 12.9847 10.2395C12.9588 10.2976 13.0557 10.4717 13.2172 10.6717C13.3723 10.8588 13.4951 11.0136 13.5015 11.0201C13.5015 11.033 13.6436 10.9104 13.8116 10.7556C14.0765 10.504 14.3349 10.3363 15.2717 9.78792C15.879 9.4331 16.4281 8.73638 16.5315 8.18158L16.5767 7.94289H17.016H17.4554L17.5006 8.18158ZM12.0156 11.5168C12.5583 12.0845 12.6358 12.8393 12.2288 13.6521C11.9574 14.194 11.1886 15.4843 11.1305 15.4843C11.0594 15.4907 10.9431 14.5489 10.9431 13.9876C10.9431 13.3877 11.0271 12.7683 11.1757 12.2974C11.3372 11.8007 11.6021 11.233 11.6732 11.233C11.7119 11.233 11.8605 11.362 12.0156 11.5168ZM22.5915 11.6007C22.9404 12.4071 23.089 13.1038 23.089 13.9876C23.089 14.6005 22.9727 15.4907 22.8887 15.4907C22.8564 15.4907 22.8305 15.4649 22.8305 15.4391C22.8305 15.4069 22.6238 15.052 22.3654 14.6456C21.5578 13.3554 21.4028 12.82 21.6418 12.1103C21.7452 11.8071 22.2168 11.233 22.3589 11.233C22.3977 11.233 22.5011 11.4007 22.5915 11.6007ZM16.5509 15.4069C16.5897 15.4456 16.6284 15.4972 16.6284 15.5165C16.6284 15.5939 16.2925 15.5552 16.1116 15.4585C15.8919 15.3423 15.7885 15.1811 15.7885 14.9424V14.7682L16.131 15.052C16.3118 15.2004 16.5057 15.3617 16.5509 15.4069ZM18.2177 15.1424C18.166 15.3359 17.8301 15.5552 17.5846 15.5552C17.4812 15.5552 17.4037 15.5359 17.4101 15.5036C17.4101 15.4778 17.591 15.3101 17.8107 15.123C18.2242 14.7811 18.3082 14.7876 18.2177 15.1424ZM15.9242 17.6712C15.7239 17.9809 15.0908 18.626 14.7226 18.884L14.5352 19.013L15.0068 19.1872C15.2652 19.284 15.5237 19.3614 15.5883 19.3614C15.7433 19.3614 16.4217 18.6518 16.7447 18.1486L17.0031 17.7551L17.2422 18.1421C17.5846 18.6969 18.2177 19.3614 18.4115 19.3614C18.5666 19.3614 19.2708 19.1227 19.3677 19.0389C19.3935 19.0066 19.3548 18.9485 19.2708 18.9034C18.993 18.7615 18.3598 18.1099 18.1014 17.7228C17.9657 17.5099 17.8688 17.3293 17.8818 17.3164C17.8947 17.3035 18.1789 17.4261 18.5084 17.5938C19.2514 17.968 20.2528 18.3099 20.7696 18.3679C21.1508 18.4131 21.1508 18.4131 21.041 18.5421C20.8472 18.755 20.1753 19.2066 19.6972 19.4388C17.9787 20.2904 16.0534 20.2904 14.3349 19.4388C13.8568 19.2066 13.1849 18.755 12.9911 18.5421C12.8813 18.4131 12.8813 18.4131 13.2625 18.3679C13.7729 18.3099 14.7807 17.968 15.4978 17.6002C15.8208 17.439 16.0922 17.3228 16.1051 17.3358C16.118 17.3487 16.034 17.497 15.9242 17.6712Z" fill="white"/>
</g>
</g>
<defs>
<clipPath id="clip0_567_4291">
<rect width="211.5" height="28" fill="white"/>
</clipPath>
<clipPath id="clip1_567_4291">
<rect x="10" y="7" width="14" height="14" rx="7" fill="white"/>
</clipPath>
</defs>
</svg>
