<svg width="212" height="28" viewBox="0 0 212 28" fill="none" xmlns="http://www.w3.org/2000/svg">
<g clip-path="url(#clip0_567_4291)">
<rect width="211.5" height="28" fill="white"/>
<path d="M115.25 0H0V28H115.25V0Z" fill="#191724"/>
<path d="M211.5 0H115.25V28H211.5V0Z" fill="#26233A"/>
<path d="M34.7786 13.51C34.7786 12.83 34.932 12.22 35.2386 11.68C35.5453 11.1333 35.962 10.7067 36.4886 10.4C37.022 10.0933 37.612 9.94 38.2586 9.94C39.0186 9.94 39.682 10.1233 40.2486 10.49C40.8153 10.8567 41.2286 11.3767 41.4886 12.05H40.3986C40.2053 11.63 39.9253 11.3067 39.5586 11.08C39.1986 10.8533 38.7653 10.74 38.2586 10.74C37.772 10.74 37.3353 10.8533 36.9486 11.08C36.562 11.3067 36.2586 11.63 36.0386 12.05C35.8186 12.4633 35.7086 12.95 35.7086 13.51C35.7086 14.0633 35.8186 14.55 36.0386 14.97C36.2586 15.3833 36.562 15.7033 36.9486 15.93C37.3353 16.1567 37.772 16.27 38.2586 16.27C38.7653 16.27 39.1986 16.16 39.5586 15.94C39.9253 15.7133 40.2053 15.39 40.3986 14.97H41.4886C41.2286 15.6367 40.8153 16.1533 40.2486 16.52C39.682 16.88 39.0186 17.06 38.2586 17.06C37.612 17.06 37.022 16.91 36.4886 16.61C35.962 16.3033 35.5453 15.88 35.2386 15.34C34.932 14.8 34.7786 14.19 34.7786 13.51ZM46.0032 17.07C45.3566 17.07 44.7666 16.92 44.2332 16.62C43.6999 16.3133 43.2766 15.89 42.9632 15.35C42.6566 14.8033 42.5032 14.19 42.5032 13.51C42.5032 12.83 42.6566 12.22 42.9632 11.68C43.2766 11.1333 43.6999 10.71 44.2332 10.41C44.7666 10.1033 45.3566 9.95 46.0032 9.95C46.6566 9.95 47.2499 10.1033 47.7832 10.41C48.3166 10.71 48.7366 11.13 49.0432 11.67C49.3499 12.21 49.5032 12.8233 49.5032 13.51C49.5032 14.1967 49.3499 14.81 49.0432 15.35C48.7366 15.89 48.3166 16.3133 47.7832 16.62C47.2499 16.92 46.6566 17.07 46.0032 17.07ZM46.0032 16.28C46.4899 16.28 46.9266 16.1667 47.3132 15.94C47.7066 15.7133 48.0132 15.39 48.2332 14.97C48.4599 14.55 48.5732 14.0633 48.5732 13.51C48.5732 12.95 48.4599 12.4633 48.2332 12.05C48.0132 11.63 47.7099 11.3067 47.3232 11.08C46.9366 10.8533 46.4966 10.74 46.0032 10.74C45.5099 10.74 45.0699 10.8533 44.6832 11.08C44.2966 11.3067 43.9899 11.63 43.7632 12.05C43.5432 12.4633 43.4332 12.95 43.4332 13.51C43.4332 14.0633 43.5432 14.55 43.7632 14.97C43.9899 15.39 44.2966 15.7133 44.6832 15.94C45.0766 16.1667 45.5166 16.28 46.0032 16.28ZM57.7746 10.08V17H56.8646V11.84L54.5646 17H53.9246L51.6146 11.83V17H50.7046V10.08H51.6846L54.2446 15.8L56.8046 10.08H57.7746ZM66.3879 10.08V17H65.4779V11.84L63.1779 17H62.5379L60.2279 11.83V17H59.3179V10.08H60.2979L62.8579 15.8L65.4179 10.08H66.3879ZM68.8211 10.03V14.44C68.8211 15.06 68.9711 15.52 69.2711 15.82C69.5778 16.12 70.0011 16.27 70.5411 16.27C71.0745 16.27 71.4911 16.12 71.7911 15.82C72.0978 15.52 72.2511 15.06 72.2511 14.44V10.03H73.1611V14.43C73.1611 15.01 73.0445 15.5 72.8111 15.9C72.5778 16.2933 72.2611 16.5867 71.8611 16.78C71.4678 16.9733 71.0245 17.07 70.5311 17.07C70.0378 17.07 69.5911 16.9733 69.1911 16.78C68.7978 16.5867 68.4845 16.2933 68.2511 15.9C68.0245 15.5 67.9111 15.01 67.9111 14.43V10.03H68.8211ZM80.1592 17H79.2492L75.5892 11.45V17H74.6792V10.02H75.5892L79.2492 15.56V10.02H80.1592V17ZM82.6204 10.03V17H81.7104V10.03H82.6204ZM88.4614 10.03V10.77H86.5614V17H85.6514V10.77H83.7414V10.03H88.4614ZM94.4615 10.03L92.1915 14.37V17H91.2815V14.37L89.0015 10.03H90.0115L91.7315 13.56L93.4515 10.03H94.4615Z" fill="white"/>
<path d="M133.393 17.07C132.88 17.07 132.42 16.9867 132.013 16.82C131.607 16.6533 131.28 16.4067 131.033 16.08C130.793 15.7533 130.667 15.36 130.653 14.9H132.473C132.5 15.16 132.59 15.36 132.743 15.5C132.897 15.6333 133.097 15.7 133.343 15.7C133.597 15.7 133.797 15.6433 133.943 15.53C134.09 15.41 134.163 15.2467 134.163 15.04C134.163 14.8667 134.103 14.7233 133.983 14.61C133.87 14.4967 133.727 14.4033 133.553 14.33C133.387 14.2567 133.147 14.1733 132.833 14.08C132.38 13.94 132.01 13.8 131.723 13.66C131.437 13.52 131.19 13.3133 130.983 13.04C130.777 12.7667 130.673 12.41 130.673 11.97C130.673 11.3167 130.91 10.8067 131.383 10.44C131.857 10.0667 132.473 9.88 133.233 9.88C134.007 9.88 134.63 10.0667 135.103 10.44C135.577 10.8067 135.83 11.32 135.863 11.98H134.013C134 11.7533 133.917 11.5767 133.763 11.45C133.61 11.3167 133.413 11.25 133.173 11.25C132.967 11.25 132.8 11.3067 132.673 11.42C132.547 11.5267 132.483 11.6833 132.483 11.89C132.483 12.1167 132.59 12.2933 132.803 12.42C133.017 12.5467 133.35 12.6833 133.803 12.83C134.257 12.9833 134.623 13.13 134.903 13.27C135.19 13.41 135.437 13.6133 135.643 13.88C135.85 14.1467 135.953 14.49 135.953 14.91C135.953 15.31 135.85 15.6733 135.643 16C135.443 16.3267 135.15 16.5867 134.763 16.78C134.377 16.9733 133.92 17.07 133.393 17.07ZM136.666 14.2C136.666 13.6267 136.772 13.1233 136.986 12.69C137.206 12.2567 137.502 11.9233 137.876 11.69C138.249 11.4567 138.666 11.34 139.126 11.34C139.519 11.34 139.862 11.42 140.156 11.58C140.456 11.74 140.686 11.95 140.846 12.21V11.42H142.556V17H140.846V16.21C140.679 16.47 140.446 16.68 140.146 16.84C139.852 17 139.509 17.08 139.116 17.08C138.662 17.08 138.249 16.9633 137.876 16.73C137.502 16.49 137.206 16.1533 136.986 15.72C136.772 15.28 136.666 14.7733 136.666 14.2ZM140.846 14.21C140.846 13.7833 140.726 13.4467 140.486 13.2C140.252 12.9533 139.966 12.83 139.626 12.83C139.286 12.83 138.996 12.9533 138.756 13.2C138.522 13.44 138.406 13.7733 138.406 14.2C138.406 14.6267 138.522 14.9667 138.756 15.22C138.996 15.4667 139.286 15.59 139.626 15.59C139.966 15.59 140.252 15.4667 140.486 15.22C140.726 14.9733 140.846 14.6367 140.846 14.21ZM147.203 17L145.503 14.66V17H143.793V9.6H145.503V13.69L147.193 11.42H149.303L146.983 14.22L149.323 17H147.203ZM149.634 14.2C149.634 13.6267 149.741 13.1233 149.954 12.69C150.174 12.2567 150.471 11.9233 150.844 11.69C151.218 11.4567 151.634 11.34 152.094 11.34C152.488 11.34 152.831 11.42 153.124 11.58C153.424 11.74 153.654 11.95 153.814 12.21V11.42H155.524V17H153.814V16.21C153.648 16.47 153.414 16.68 153.114 16.84C152.821 17 152.478 17.08 152.084 17.08C151.631 17.08 151.218 16.9633 150.844 16.73C150.471 16.49 150.174 16.1533 149.954 15.72C149.741 15.28 149.634 14.7733 149.634 14.2ZM153.814 14.21C153.814 13.7833 153.694 13.4467 153.454 13.2C153.221 12.9533 152.934 12.83 152.594 12.83C152.254 12.83 151.964 12.9533 151.724 13.2C151.491 13.44 151.374 13.7733 151.374 14.2C151.374 14.6267 151.491 14.9667 151.724 15.22C151.964 15.4667 152.254 15.59 152.594 15.59C152.934 15.59 153.221 15.4667 153.454 15.22C153.694 14.9733 153.814 14.6367 153.814 14.21ZM157.622 10.84C157.322 10.84 157.075 10.7533 156.882 10.58C156.695 10.4 156.602 10.18 156.602 9.92C156.602 9.65333 156.695 9.43333 156.882 9.26C157.075 9.08 157.322 8.99 157.622 8.99C157.915 8.99 158.155 9.08 158.342 9.26C158.535 9.43333 158.632 9.65333 158.632 9.92C158.632 10.18 158.535 10.4 158.342 10.58C158.155 10.7533 157.915 10.84 157.622 10.84ZM158.472 11.42V17H156.762V11.42H158.472ZM166.88 9.98V11.35H165.02V17H163.31V11.35H161.45V9.98H166.88ZM171.168 11.36C171.808 11.36 172.321 11.5733 172.708 12C173.095 12.42 173.288 13 173.288 13.74V17H171.588V13.97C171.588 13.5967 171.491 13.3067 171.298 13.1C171.105 12.8933 170.845 12.79 170.518 12.79C170.191 12.79 169.931 12.8933 169.738 13.1C169.545 13.3067 169.448 13.5967 169.448 13.97V17H167.738V9.6H169.448V12.17C169.621 11.9233 169.858 11.7267 170.158 11.58C170.458 11.4333 170.795 11.36 171.168 11.36ZM179.736 14.12C179.736 14.28 179.726 14.4467 179.706 14.62H175.836C175.863 14.9667 175.973 15.2333 176.166 15.42C176.366 15.6 176.61 15.69 176.896 15.69C177.323 15.69 177.62 15.51 177.786 15.15H179.606C179.513 15.5167 179.343 15.8467 179.096 16.14C178.856 16.4333 178.553 16.6633 178.186 16.83C177.82 16.9967 177.41 17.08 176.956 17.08C176.41 17.08 175.923 16.9633 175.496 16.73C175.07 16.4967 174.736 16.1633 174.496 15.73C174.256 15.2967 174.136 14.79 174.136 14.21C174.136 13.63 174.253 13.1233 174.486 12.69C174.726 12.2567 175.06 11.9233 175.486 11.69C175.913 11.4567 176.403 11.34 176.956 11.34C177.496 11.34 177.976 11.4533 178.396 11.68C178.816 11.9067 179.143 12.23 179.376 12.65C179.616 13.07 179.736 13.56 179.736 14.12ZM177.986 13.67C177.986 13.3767 177.886 13.1433 177.686 12.97C177.486 12.7967 177.236 12.71 176.936 12.71C176.65 12.71 176.406 12.7933 176.206 12.96C176.013 13.1267 175.893 13.3633 175.846 13.67H177.986ZM187.759 11.36C188.452 11.36 189.002 11.57 189.409 11.99C189.822 12.41 190.029 12.9933 190.029 13.74V17H188.329V13.97C188.329 13.61 188.232 13.3333 188.039 13.14C187.852 12.94 187.592 12.84 187.259 12.84C186.925 12.84 186.662 12.94 186.469 13.14C186.282 13.3333 186.189 13.61 186.189 13.97V17H184.489V13.97C184.489 13.61 184.392 13.3333 184.199 13.14C184.012 12.94 183.752 12.84 183.419 12.84C183.085 12.84 182.822 12.94 182.629 13.14C182.442 13.3333 182.349 13.61 182.349 13.97V17H180.639V11.42H182.349V12.12C182.522 11.8867 182.749 11.7033 183.029 11.57C183.309 11.43 183.625 11.36 183.979 11.36C184.399 11.36 184.772 11.45 185.099 11.63C185.432 11.81 185.692 12.0667 185.879 12.4C186.072 12.0933 186.335 11.8433 186.669 11.65C187.002 11.4567 187.365 11.36 187.759 11.36ZM196.484 14.12C196.484 14.28 196.474 14.4467 196.454 14.62H192.584C192.611 14.9667 192.721 15.2333 192.914 15.42C193.114 15.6 193.358 15.69 193.644 15.69C194.071 15.69 194.368 15.51 194.534 15.15H196.354C196.261 15.5167 196.091 15.8467 195.844 16.14C195.604 16.4333 195.301 16.6633 194.934 16.83C194.568 16.9967 194.158 17.08 193.704 17.08C193.158 17.08 192.671 16.9633 192.244 16.73C191.818 16.4967 191.484 16.1633 191.244 15.73C191.004 15.2967 190.884 14.79 190.884 14.21C190.884 13.63 191.001 13.1233 191.234 12.69C191.474 12.2567 191.808 11.9233 192.234 11.69C192.661 11.4567 193.151 11.34 193.704 11.34C194.244 11.34 194.724 11.4533 195.144 11.68C195.564 11.9067 195.891 12.23 196.124 12.65C196.364 13.07 196.484 13.56 196.484 14.12ZM194.734 13.67C194.734 13.3767 194.634 13.1433 194.434 12.97C194.234 12.7967 193.984 12.71 193.684 12.71C193.398 12.71 193.154 12.7933 192.954 12.96C192.761 13.1267 192.641 13.3633 192.594 13.67H194.734Z" fill="white"/>
<g clip-path="url(#clip1_567_4291)">
<rect x="6" y="4" width="18" height="18" rx="9" fill="#302C47"/>
<path d="M14.3146 4.0179C12.7364 4.23356 12.0137 4.43262 11.0003 4.93857C10.1448 5.36158 9.57163 5.76801 8.84066 6.45643C6.9551 8.24801 6.02479 10.3879 6.01648 12.9675C6.01648 14.8669 6.48995 16.476 7.51994 18.0602C7.91034 18.6574 9.36396 20.1089 9.96203 20.4987C11.5319 21.5189 13.1517 22 15.0206 22C17.4378 22 19.4895 21.1872 21.2006 19.5615C23.1028 17.7533 24.0165 15.6217 24.0165 13.009C24.0165 10.3962 23.1028 8.2646 21.2006 6.45643C19.9463 5.26205 18.4512 4.49068 16.8065 4.17549C16.1752 4.05108 14.7216 3.95984 14.3146 4.0179ZM15.6436 5.51918C15.7765 6.23249 16.4826 7.12827 17.2634 7.58446C18.4678 8.28948 18.8001 8.50513 19.1406 8.82861C19.3566 9.02768 19.5393 9.18527 19.5393 9.16868C19.5476 9.16038 19.7055 8.96132 19.9048 8.72079C20.1125 8.46366 20.2371 8.23971 20.2038 8.16507C20.1208 7.94941 18.9994 7.15316 17.9694 6.58085C17.5043 6.32373 16.9311 5.76801 16.9311 5.58553C16.9311 5.42794 16.9809 5.42794 17.5209 5.61871C18.1854 5.84265 19.0659 6.30714 19.6307 6.72185C20.154 7.11169 20.9348 7.85818 21.1508 8.18165C21.2588 8.35583 21.2588 8.38072 21.0345 8.5466C20.2869 9.11891 19.7968 9.91517 19.6639 10.8027C19.4895 11.8809 19.7304 12.5694 20.9597 14.6263C21.9565 16.2935 22.0479 16.816 21.4 17.1976C20.6773 17.6206 19.4812 17.463 17.8448 16.7165L17.2301 16.4345L17.8448 16.2023C18.8748 15.8207 20.2537 15.0245 20.2537 14.8171C20.2537 14.7425 19.8134 13.9711 19.7055 13.8467C19.6888 13.8301 19.4895 13.9545 19.2652 14.1121C18.6588 14.5517 17.172 15.2484 16.848 15.2484C16.8065 15.2484 16.873 15.0411 16.9893 14.7839C17.2218 14.2697 17.2218 13.7803 16.9726 13.5066C16.848 13.3656 16.848 13.3075 17.0889 12.6191C17.4295 11.5989 17.5375 10.9685 17.4959 10.1723C17.4544 9.39263 17.2717 8.90326 16.8564 8.42219C16.1835 7.65911 14.8877 7.42687 13.9242 7.89135C12.4623 8.60466 12.13 10.3382 12.9939 12.7435C13.2015 13.3158 13.2015 13.3573 13.0686 13.5066C12.8194 13.7803 12.8194 14.2614 13.052 14.7839C13.1683 15.0411 13.2348 15.2484 13.1932 15.2484C12.8693 15.2484 11.3824 14.5517 10.7761 14.1121C10.5518 13.9545 10.3524 13.8301 10.3358 13.8467C10.2278 13.9711 9.78759 14.7425 9.78759 14.8171C9.78759 15.0245 11.1665 15.8207 12.1965 16.2023L12.8111 16.4345L12.2297 16.6999C10.5684 17.4547 9.36396 17.6206 8.64131 17.1976C8.00171 16.816 8.08478 16.2852 9.04832 14.6844C10.2943 12.6274 10.5435 11.8809 10.3773 10.8027C10.2444 9.91517 9.75437 9.11891 9.00679 8.5466C8.78252 8.38072 8.78252 8.35583 8.8905 8.18165C9.10647 7.85818 9.88727 7.11169 10.4106 6.72185C10.9754 6.30714 11.8559 5.84265 12.5204 5.61871C13.0603 5.42794 13.1102 5.42794 13.1102 5.58553C13.1102 5.76801 12.537 6.32373 12.0719 6.58085C11.0419 7.15316 9.92049 7.94941 9.83743 8.16507C9.8042 8.23971 9.9288 8.46366 10.1365 8.72079C10.3358 8.96132 10.4936 9.16038 10.5019 9.16868C10.5019 9.18527 10.6847 9.02768 10.9007 8.82861C11.2412 8.50513 11.5735 8.28948 12.7779 7.58446C13.5587 7.12827 14.2647 6.23249 14.3977 5.51918L14.4558 5.21229H15.0206H15.5855L15.6436 5.51918ZM8.59147 9.80734C9.28921 10.5372 9.38888 11.5077 8.86558 12.5528C8.51671 13.2495 7.52825 14.9084 7.45349 14.9084C7.36212 14.9166 7.2126 13.7057 7.2126 12.9841C7.2126 12.2127 7.32059 11.4164 7.51163 10.811C7.71929 10.1723 8.05986 9.44239 8.15123 9.44239C8.20107 9.44239 8.39211 9.60828 8.59147 9.80734ZM22.1891 9.91517C22.6376 10.952 22.8287 11.8477 22.8287 12.9841C22.8287 13.772 22.6791 14.9166 22.5712 14.9166C22.5296 14.9166 22.4964 14.8835 22.4964 14.8503C22.4964 14.8088 22.2306 14.3526 21.8983 13.8301C20.86 12.1712 20.6607 11.4828 20.968 10.5704C21.1009 10.1806 21.7073 9.44239 21.89 9.44239C21.9399 9.44239 22.0728 9.65804 22.1891 9.91517ZM14.4226 14.8088C14.4724 14.8586 14.5222 14.9249 14.5222 14.9498C14.5222 15.0494 14.0903 14.9996 13.8577 14.8752C13.5753 14.7259 13.4424 14.5185 13.4424 14.2116V13.9877L13.8827 14.3526C14.1152 14.5434 14.3644 14.7508 14.4226 14.8088ZM16.5656 14.4688C16.4992 14.7176 16.0672 14.9996 15.7516 14.9996C15.6187 14.9996 15.519 14.9747 15.5273 14.9332C15.5273 14.9001 15.7599 14.6844 16.0423 14.4439C16.5739 14.0043 16.6819 14.0126 16.5656 14.4688ZM13.6168 17.7201C13.3594 18.1183 12.5453 18.9477 12.0719 19.2795L11.831 19.4453L12.4373 19.6693C12.7696 19.7937 13.1019 19.8932 13.1849 19.8932C13.3843 19.8932 14.2564 18.9809 14.6718 18.3339L15.004 17.828L15.3114 18.3256C15.7516 19.0389 16.5656 19.8932 16.8148 19.8932C17.0142 19.8932 17.9196 19.5864 18.0442 19.4785C18.0774 19.4371 18.0276 19.3624 17.9196 19.3043C17.5624 19.1219 16.7484 18.2841 16.4161 17.7865C16.2417 17.5128 16.1171 17.2805 16.1337 17.2639C16.1503 17.2474 16.5158 17.4049 16.9394 17.6206C17.8947 18.1017 19.1821 18.5413 19.8467 18.6159C20.3367 18.674 20.3367 18.674 20.1955 18.8399C19.9463 19.1136 19.0825 19.6942 18.4678 19.9928C16.2583 21.0876 13.783 21.0876 11.5735 19.9928C10.9588 19.6942 10.0949 19.1136 9.84574 18.8399C9.70453 18.674 9.70453 18.674 10.1946 18.6159C10.8508 18.5413 12.1466 18.1017 13.0686 17.6289C13.4839 17.4215 13.8328 17.2722 13.8494 17.2888C13.866 17.3054 13.7581 17.4962 13.6168 17.7201Z" fill="white"/>
</g>
</g>
<defs>
<clipPath id="clip0_567_4291">
<rect width="211.5" height="28" fill="white"/>
</clipPath>
<clipPath id="clip1_567_4291">
<rect x="6" y="4" width="18" height="18" rx="9" fill="white"/>
</clipPath>
</defs>
</svg>
